{"title":"Big.Brother.Canada.S02E06.WEB-DL.x264-DARKCROWN","uid":9778996,"size":272201150,"categoryP":"video","categoryS":"tv_shows","magnet":"?xt=urn:btih:44b8cb409d21d63c380c55bc24344681f8017f67&amp;dn=Big.Brother.Canada.S02E06.WEB-DL.x264-DARKCROWN&amp;tr=udp%3A%2F%2Ftracker.openbittorrent.com%3A80&amp;tr=udp%3A%2F%2Fopen.demonii.com%3A1337&amp;tr=udp%3A%2F%2Ftracker.coppersurfer.tk%3A6969&amp;tr=udp%3A%2F%2Fexodus.desync.com%3A6969","seeders":2,"leechers":0,"uploader":"theacidwiz","files":1,"time":1395076801,"description":"General\nComplete name                  : C:UsersVelimirDownloadsBig.Brother.Canada.S02E06.WEB-DL.x264-DARKCROWN.mp4\nFormat                         : MPEG-4\nFormat profile                 : Base Media / Version 2\nCodec ID                       : mp42\nFile size                      : 260 MiB\nDuration                       : 44mn 14s\nOverall bit rate mode          : Variable\nOverall bit rate               : 820 Kbps\nEncoded date                   : UTC 2014-03-17 13:38:27\nTagged date                    : UTC 2014-03-17 13:38:27\n\nVideo\nID                             : 1\nFormat                         : AVC\nFormat/Info                    : Advanced Video Codec\nFormat profile                 : &lt;a class=&quot;__cf_email__&quot; href=&quot;/cdn-cgi/l/email-protection&quot; data-cfemail=&quot;e3ae828a8da3afd0cdd2&quot;&gt;[email&amp;#160;protected]&lt;/a&gt;&lt;script cf-hash='f9e31' type=&quot;text/javascript&quot;&gt;\n/* &lt;![CDATA[ */!function(){try{var t=&quot;currentScript&quot;in document?document.currentScript:function(){for(var t=document.getElementsByTagName(&quot;script&quot;),e=t.length;e--;)if(t[e].getAttribute(&quot;cf-hash&quot;))return t[e]}();if(t&amp;&amp;t.previousSibling){var e,r,n,i,c=t.previousSibling,a=c.getAttribute(&quot;data-cfemail&quot;);if(a){for(e=&quot;&quot;,r=parseInt(a.substr(0,2),16),n=2;a.length-n;n+=2)i=parseInt(a.substr(n,2),16)^r,e+=String.fromCharCode(i);e=document.createTextNode(e),c.parentNode.replaceChild(e,c)}}}catch(u){}}();/* ]]&gt; */&lt;/script&gt;\nFormat settings, CABAC         : Yes\nFormat settings, ReFrames      : 4 frames\nCodec ID                       : avc1\nCodec ID/Info                  : Advanced Video Coding\nDuration                       : 44mn 14s\nBit rate mode                  : Variable\nBit rate                       : 770 Kbps\nMaximum bit rate               : 840 Kbps\nWidth                          : 960 pixels\nHeight                         : 544 pixels\nDisplay aspect ratio           : 16:9\nFrame rate mode                : Constant\nFrame rate                     : 29.970 fps\nColor space                    : YUV\nChroma subsampling             : 4:2:0\nBit depth                      : 8 bits\nScan type                      : Progressive\nBits/(Pixel*Frame)             : 0.049\nStream size                    : 244 MiB (94%)\nLanguage                       : English\nEncoded date                   : UTC 2014-03-17 13:38:27\nTagged date                    : UTC 2014-03-17 13:38:27\n\nAudio\nID                             : 2\nFormat                         : AAC\nFormat/Info                    : Advanced Audio Codec\nFormat profile                 : LC\nCodec ID                       : 40\nDuration                       : 44mn 14s\nBit rate mode                  : Variable\nBit rate                       : 45.6 Kbps\nMaximum bit rate               : 486 Kbps\nChannel(s)                     : 2 channels\nChannel positions              : Front: L R\nSampling rate                  : 44.1 KHz\nCompression mode               : Lossy\nStream size                    : 14.4 MiB (6%)\nLanguage                       : English\nEncoded date                   : UTC 2014-03-17 13:38:27\nTagged date                    : UTC 2014-03-17 13:38:27\nmdhd_Duration                  : 2654528\n\n","torrent":{"xt":"urn:btih:44b8cb409d21d63c380c55bc24344681f8017f67","amp;dn":"Big.Brother.Canada.S02E06.WEB-DL.x264-DARKCROWN","amp;tr":["udp%3A%2F%2Ftracker.openbittorrent.com%3A80","udp%3A%2F%2Fopen.demonii.com%3A1337","udp%3A%2F%2Ftracker.coppersurfer.tk%3A6969","udp%3A%2F%2Fexodus.desync.com%3A6969"],"infoHash":"44b8cb409d21d63c380c55bc24344681f8017f67","infoHashBuffer":{"type":"Buffer","data":[68,184,203,64,157,33,214,60,56,12,85,188,36,52,70,129,248,1,127,103]},"announce":[],"urlList":[]}}